HIERARCHY
ROOT Hips
{
  OFFSET -1.0232 89.769 1.47343
  CHANNELS 6 Xposition Yposition Zposition Zrotation Xrotation Yrotation
  JOINT Spine
  {
    OFFSET 0 10.1816 0.1315
    CHANNELS 3 Zrotation Xrotation Yrotation
    JOINT Spine1
    {
      OFFSET 0 10.0835 -1.0008
      CHANNELS 3 Zrotation Xrotation Yrotation
      JOINT Spine2
      {
        OFFSET 0 9.1 -1.3734
        CHANNELS 3 Zrotation Xrotation Yrotation
        JOINT Neck
        {
          OFFSET 0 16.6717 -2.5162
          CHANNELS 3 Zrotation Xrotation Yrotation
          JOINT Head
          {
            OFFSET 0 9.6179 1.685
            CHANNELS 3 Zrotation Xrotation Yrotation
            End Site
            {
              OFFSET 0 17.8152 2.585
            }
          }
        }
        JOINT LeftShoulder
        {
          OFFSET 4.5704 10.946 -2.628
          CHANNELS 3 Zrotation Xrotation Yrotation
          JOINT LeftArm
          {
            OFFSET 10.5924 -0.5246 -2.2321
            CHANNELS 3 Zrotation Xrotation Yrotation
            JOINT LeftForeArm
            {
              OFFSET 27.8415 -0.0001 0
              CHANNELS 3 Zrotation Xrotation Yrotation
              JOINT LeftHand
              {
                OFFSET 28.3288 0 0
                CHANNELS 3 Zrotation Xrotation Yrotation
                End Site
                {
                  OFFSET 0 0 0
                }
              }
            }
          }
        }
        JOINT RightShoulder
        {
          OFFSET -4.57 10.9462 -2.628
          CHANNELS 3 Zrotation Xrotation Yrotation
          JOINT RightArm
          {
            OFFSET -10.5928 -0.5248 -2.2321
            CHANNELS 3 Zrotation Xrotation Yrotation
            JOINT RightForeArm
            {
              OFFSET -27.8415 0 0
              CHANNELS 3 Zrotation Xrotation Yrotation
              JOINT RightHand
              {
                OFFSET -28.3288 0 0.0001
                CHANNELS 3 Zrotation Xrotation Yrotation
                End Site
                {
                  OFFSET 0 0 0
                }
              }
            }
          }
        }
      }
    }
  }
  JOINT LeftUpLeg
  {
    OFFSET 8.2078 -6.7517 -1.5996
    CHANNELS 3 Zrotation Xrotation Yrotation
    JOINT LeftLeg
    {
      OFFSET 0 -44.3705 0.2846
      CHANNELS 3 Zrotation Xrotation Yrotation
      JOINT LeftFoot
      {
        OFFSET 0 -44.4279 -2.9822
        CHANNELS 3 Zrotation Xrotation Yrotation
        JOINT LeftToeBase
        {
          OFFSET 0 -8.7287 10.7106
          CHANNELS 3 Zrotation Xrotation Yrotation
          End Site
          {
            OFFSET 0 -0.0007 9.2781
          }
        }
      }
    }
  }
  JOINT RightUpLeg
  {
    OFFSET -8.2078 -6.7517 -1.5996
    CHANNELS 3 Zrotation Xrotation Yrotation
    JOINT RightLeg
    {
      OFFSET 0 -44.3705 0.2862
      CHANNELS 3 Zrotation Xrotation Yrotation
      JOINT RightFoot
      {
        OFFSET 0 -44.4277 -2.9838
        CHANNELS 3 Zrotation Xrotation Yrotation
        JOINT RightToeBase
        {
          OFFSET 0 -8.7287 10.7106
          CHANNELS 3 Zrotation Xrotation Yrotation
          End Site
          {
            OFFSET 0 -0.0007 9.2781
          }
        }
      }
    }
  }
}
MOTION
Frames:	20
Frame Time:	0.0333333
-1.0232 89.769 1.47343 0.691143 -2.61557 -39.7681 -3.3043 12.9269 6.20117 0.0917354 0.122555 0.762589 0.0742224 0.120672 0.76575 -4.70279 5.70929 3.0786 -5.6402 9.82642 8.11945 -8.09219 1.12978 4.53403 -68.7937 -2.98779 -10.9371 -3.04805 -2.9567 -136.056 17.9867 7.72004 -7.96834 -2.72917 3.1388 13.9822 65.4519 2.19444 15.5532 -0.483621 0.428045 138.815 -14.3417 4.14669 10.1159 20.3851 -30.4198 17.8441 11.3885 48.5447 -15.8485 -18.6027 -14.4375 -14.716 -0.000185641 -1.24596 -0.00423522 -27.5713 -4.01648 -18.02 -10.6573 43.1619 4.08002 21.8983 -17.7619 2.43983 0.407967 -9.28016 0.0641659 
-1.39117 90.9247 0.539984 0.746708 -2.21499 -39.1795 -3.61263 13.2099 6.30261 0.0432601 0.192832 0.762592 0.0276295 0.190823 0.765753 -4.75091 5.93695 3.04651 -5.53156 9.60441 7.89798 -8.23017 1.07679 4.72581 -68.9792 -3.20454 -11.1453 -3.05176 -2.95246 -136.136 17.4048 8.36288 -7.20164 -2.83038 3.14694 14.5471 65.6538 1.56427 15.1335 -0.482532 0.42709 138.669 -13.344 4.18492 9.27303 20.5257 -29.1565 18.4601 10.7609 44.3501 -15.4656 -18.8345 -11.8663 -14.8144 -0.000326912 -3.15459 -0.00424064 -27.2055 -4.10186 -18.5336 -8.886 42.3275 3.81341 21.8196 -14.5771 1.78973 4.02047 -10.2228 0.575914 
-1.95622 92.6634 -0.996634 0.775391 -1.43211 -38.2606 -3.49553 13.3309 6.23297 0.00715766 0.371853 0.756549 -0.00608709 0.369947 0.76078 -4.86585 6.33893 3.00661 -5.28625 9.04836 7.53389 -8.29837 1.06283 4.72713 -68.7767 -3.92186 -11.9275 -3.0919 -2.91038 -136.921 17.9577 8.30675 -7.15668 -2.83066 3.43066 15.8207 65.6783 -0.0577344 14.8566 -0.488096 0.420695 139.423 -12.9611 3.63594 8.41515 20.7972 -28.2065 19.1339 10.2198 38.777 -14.7955 -18.6767 -5.36359 -14.2152 -0.00060359 -6.44107 -0.00426111 -26.2709 -4.44956 -18.9633 -6.65685 41.2712 3.41347 21.3945 -10.6809 0.998447 5.74974 -10.22 0.748757 
-2.63767 94.5053 -2.89806 0.752102 -0.415727 -37.0052 -3.05792 13.3295 5.93963 0.00576148 0.639615 0.724883 -0.00418771 0.637805 0.729321 -5.03631 6.84086 2.94629 -4.89502 8.16581 6.95723 -8.26027 1.12323 4.44409 -68.2731 -4.95073 -13.309 -3.14853 -2.84904 -138.047 19.4861 7.79357 -7.66405 -2.81007 3.78498 17.3408 65.481 -2.2432 14.6645 -0.499319 0.40733 140.974 -13.1638 2.81432 7.68982 21.1052 -27.5784 19.7444 9.56552 32.5689 -13.8662 -18.2611 3.44012 -12.9694 1.61998e-006 -8.73 -5.79819e-005 -24.8996 -4.94378 -19.1468 -4.50627 40.4667 2.73135 20.8538 -8.36157 0.537995 4.60026 -8.95843 0.537318 
-3.34875 95.8743 -4.92622 0.725592 0.590334 -35.414 -2.51147 13.242 5.4702 0.0368876 0.949333 0.669591 0.0304816 0.947486 0.674993 -5.23259 7.30995 2.86903 -4.44695 7.17789 6.22217 -8.10622 1.26227 3.87807 -67.6623 -5.98287 -15.1405 -3.19737 -2.79409 -139.04 21.3969 7.23553 -8.28435 -2.85596 3.95858 18.5388 65.1541 -4.3494 14.5381 -0.512621 0.390455 142.885 -13.7069 2.1798 7.20552 21.4415 -27.423 20.1935 8.50458 27.2841 -13.2544 -18.0687 11.394 -10.8688 0.649435 -10.5168 0.0678872 -23.4083 -5.4569 -19.0645 -2.72221 40.0116 2.32917 19.8427 -7.58771 0.373791 3.37575 -7.56565 0.347713 
-4.04055 96.454 -6.8712 0.765453 1.24738 -33.8447 -2.07382 13.1361 4.98483 0.0820832 1.21545 0.609147 0.078423 1.21342 0.615408 -5.40592 7.62032 2.79535 -4.06556 6.43753 5.50649 -7.88127 1.42881 3.20177 -67.1604 -6.65074 -16.9448 -3.22788 -2.75878 -139.67 22.8647 6.89292 -8.68924 -2.9936 3.83045 19.101 64.87 -5.82614 14.4435 -0.523835 0.375272 144.564 -14.2843 1.94801 7.02768 21.7676 -28.4287 20.4136 7.88105 26.3155 -12.9969 -18.5038 13.8351 -9.01159 1.00406 -8.74705 0.0751432 -22.2789 -5.89032 -18.7926 -1.50504 40.1767 2.42688 18.4714 -8.64276 0.519723 2.37471 -6.47521 0.219789 
-4.7317 96.2964 -8.67543 0.724369 1.50787 -32.4921 -1.77984 13.1009 4.60006 0.138453 1.37492 0.558383 0.136303 1.3726 0.565443 -5.51552 7.74794 2.73778 -3.76881 6.10194 4.9336 -7.65173 1.5727 2.59168 -66.8984 -6.75358 -18.2482 -3.24294 -2.74104 -139.984 23.5021 6.74902 -8.93048 -3.17941 3.47465 19.0825 64.7043 -6.53589 14.3011 -0.530998 0.365059 145.673 -14.7774 1.93899 7.17187 21.9889 -30.0298 20.3552 7.78718 29.1109 -13.2913 -18.4313 11.8174 -7.90109 1.43923 -6.43014 0.0716331 -21.348 -5.96213 -18.4078 -0.836333 40.5876 2.71349 17.1932 -10.8976 0.820626 2.12243 -6.26792 0.193358 
-5.43931 95.4236 -10.2666 0.475593 1.37642 -31.3865 -1.57467 13.2197 4.35169 0.213194 1.39509 0.522717 0.211324 1.39239 0.53105 -5.52252 7.72326 2.69069 -3.51166 6.13906 4.53813 -7.48041 1.67056 2.17015 -66.9543 -6.18618 -18.6714 -3.24909 -2.73374 -140.112 23.306 6.74145 -9.1957 -3.34613 3.0393 18.5985 64.6444 -6.49993 14.008 -0.534695 0.361699 146.08 -15.1705 1.8866 7.63903 22.258 -31.5508 20.1025 8.06242 34.0406 -13.9916 -18.4637 7.87563 -7.20053 2.12341 -6.29856 0.105649 -20.4621 -5.44424 -17.9228 -0.60587 41.0091 2.89943 16.7714 -14.1004 1.26649 2.82314 -6.8774 0.270446 
-6.1632 94.0533 -11.6582 -0.0395177 0.953777 -30.432 -1.37347 13.6238 4.17172 0.308412 1.25079 0.494627 0.305767 1.24795 0.505113 -5.36948 7.5623 2.62365 -3.26978 6.36957 4.27787 -7.4224 1.71719 2.03376 -67.4104 -4.8928 -17.9378 -3.24843 -2.73453 -140.099 22.6016 6.85721 -9.66932 -3.41033 2.68337 17.6084 64.6318 -5.68928 13.5116 -0.531332 0.364591 145.722 -15.4463 1.58614 8.44316 22.6517 -32.6118 19.8246 8.52803 39.2093 -14.7732 -17.5888 3.43768 -6.71284 2.20432 -8.07972 0.151894 -19.4661 -4.18761 -17.4095 -0.552024 41.0354 2.94244 17.7668 -18.1579 1.94549 1.46611 -8.94948 0.150596 
-6.81878 92.5277 -12.8919 -0.695058 0.348298 -29.5044 -1.09759 14.3872 3.95397 0.378829 0.981387 0.464268 0.374883 0.979052 0.476644 -5.07355 7.26913 2.52269 -3.10069 6.59428 4.0992 -7.48466 1.71452 2.19561 -68.2005 -3.07629 -16.2178 -3.23867 -2.74609 -139.895 21.8111 7.06314 -10.2987 -3.35629 2.46434 16.1793 64.5954 -4.26225 12.898 -0.524887 0.373819 144.723 -15.5491 1.19361 9.44939 23.2261 -33.5404 19.7685 9.25841 43.9071 -15.5119 -15.5989 -1.6083 -6.45197 0.0115997 -7.07856 0.00111571 -18.4671 -2.51119 -17.0296 -0.394458 41.004 2.57478 19.1793 -23.9965 3.03047 -0.0026337 -8.1344 -0.000432831 
-7.27115 91.1336 -13.9186 -1.38701 -0.366331 -28.6141 -0.641874 15.4771 3.67489 0.375689 0.660466 0.431391 0.370457 0.659383 0.443975 -4.70141 6.86214 2.4034 -3.07044 6.7387 4.00742 -7.65468 1.64828 2.65571 -69.1922 -0.991865 -13.8253 -3.21489 -2.77389 -139.401 21.0268 7.32214 -10.8897 -3.2139 2.38142 14.565 64.5164 -2.51503 12.2803 -0.515326 0.386857 143.285 -15.4135 1.04928 10.4206 24.1211 -34.716 19.808 10.3064 47.6284 -16.5754 -15.7719 -3.85127 -6.21701 4.5461e-006 -6.86273 0.00381627 -17.6617 -0.858082 -16.9411 -0.038336 41.385 1.4841 19.629 -31.4116 4.49943 1.33008e-005 -5.49428 0.00207854 
-7.46326 90.1837 -14.6232 -1.88883 -1.13645 -27.9867 -0.110599 16.6354 3.44956 0.277631 0.417115 0.412162 0.271547 0.417663 0.422188 -4.3812 6.45412 2.30654 -3.18162 6.84366 4.01669 -7.90162 1.49365 3.37749 -70.1346 0.991747 -11.2923 -3.17343 -2.82127 -138.551 20.0377 7.62162 -11.1435 -3.06037 2.40132 13.3259 64.4382 -1.03847 11.7659 -0.505115 0.400116 141.798 -15.0093 1.56432 10.98 24.6708 -36.1106 19.6247 11.4556 50.2234 -17.8417 -15.8595 -2.5609 -5.99616 0.00677034 -8.28988 0.000861998 -17.9722 -0.707617 -17.1152 0.464802 43.7181 1.74104 19.4164 -34.2082 4.9318 0.000292388 -3.94229 0.00407785 
-7.47328 89.8616 -14.8203 -2.17975 -1.75666 -28.0152 0.347349 17.4348 3.51392 0.141462 0.348959 0.433449 0.134523 0.350625 0.439236 -4.2246 6.23687 2.2654 -3.33385 7.05513 4.09374 -8.16971 1.23882 4.26756 -70.7653 2.55254 -9.15449 -3.12263 -2.87738 -137.529 18.5476 8.01518 -10.8993 -2.98618 2.43907 12.913 64.519 -0.362772 11.3866 -0.49749 0.40956 140.718 -14.3849 2.77163 10.9091 25.2713 -37.3401 19.6518 12.0994 52.1094 -18.7856 -16.0994 1.97218 -5.84846 1.02676 -12.5668 0.14177 -18.6427 -0.391988 -17.54 0.773678 44.7065 2.88345 18.8475 -34.8241 4.82131 0.000540677 -3.57933 0.00893036 
-7.37604 90.1519 -14.5117 -2.28104 -2.0677 -28.8718 0.528607 17.5861 4.05819 0.0322181 0.439692 0.513841 0.0234897 0.441592 0.515453 -4.24168 6.31465 2.27751 -3.45878 7.50353 4.17255 -8.40878 0.870543 5.25275 -70.9844 3.55279 -7.55909 -3.08554 -2.91712 -136.796 16.5755 8.50098 -10.243 -3.04318 2.37956 13.1766 64.8982 -0.500432 11.1621 -0.493977 0.413129 140.306 -13.5673 4.18973 10.3362 26.7734 -38.2702 20.5797 11.9833 54.0792 -18.805 -18.2373 6.84507 -5.90359 3.07296 -12.6821 0.40799 -19.2516 0.36961 -17.9928 0.651596 43.5404 4.06738 18.6733 -34.0591 5.20064 0.00074809 -3.49819 0.0143236 
-7.19595 90.8203 -13.9038 -2.17795 -2.07396 -30.2406 0.306216 16.9617 5.02033 -0.0163076 0.599212 0.640423 -0.027463 0.600666 0.639467 -4.39043 6.69994 2.33439 -3.54822 8.17081 4.24681 -8.52523 0.426196 6.20305 -70.7526 3.80792 -6.57675 -3.07939 -2.92363 -136.675 14.7421 8.8619 -9.35928 -3.19575 2.19143 13.6903 65.5072 -1.18241 11.2637 -0.49844 0.408407 140.851 -12.8643 5.1451 9.64587 28.5815 -38.6539 22.284 11.0032 55.6919 -18.0724 -18.4032 10.088 -6.54076 4.18062 -10.2172 0.405017 -19.6695 1.20947 -18.2542 0.168076 40.9845 4.34248 19.3509 -32.192 6.48122 0.000951242 -3.92269 0.017347 
-6.78512 92.04 -12.7636 -1.77657 -1.75531 -31.9065 -0.150951 15.7194 5.98056 -0.00800549 0.717911 0.762429 -0.0207404 0.718497 0.761169 -4.62157 7.26977 2.43558 -3.6636 8.82678 4.41 -8.47693 0.0410324 6.86279 -70.1713 3.12876 -6.29948 -3.1154 -2.88521 -137.385 14.1297 8.79187 -8.50336 -3.33108 1.99855 14.203 66.1013 -2.19843 12.0486 -0.508387 0.395984 142.265 -12.7751 5.16381 9.02356 29.5183 -38.1136 23.598 9.58354 55.5957 -16.901 -18.0086 11.6058 -7.43687 4.70923 -6.38909 0.271882 -19.852 2.34381 -18.1997 -0.554561 36.4229 4.47899 20.152 -28.5961 7.0182 0.00117059 -5.47487 0.0150965 
-6.10527 93.363 -11.3327 -1.11376 -1.2185 -33.5203 -0.659826 14.2247 6.60759 0.0411648 0.768704 0.839603 0.0286486 0.768047 0.83988 -4.90421 7.82896 2.58456 -3.84566 9.19042 4.76627 -8.30664 -0.163428 7.06529 -69.4324 1.56464 -6.73931 -3.18664 -2.80633 -138.82 15.2447 8.2496 -7.86272 -3.37723 1.93825 14.7221 66.5385 -3.42506 13.6842 -0.520836 0.379427 144.108 -13.4475 4.49689 8.42344 29.1454 -37.3258 23.7578 8.6923 53.9737 -16.0768 -17.3631 11.2884 -8.15787 1.86137 -3.22766 0.0752186 -20.4869 1.95248 -17.8852 -1.42288 33.6394 5.4562 20.4136 -22.2322 6.21512 1.19856e-005 -6.31239 -0.000189418 
-5.2074 94.4814 -9.74978 -0.344851 -0.597227 -34.9749 -1.11478 12.777 6.83817 0.129261 0.78548 0.864744 0.118617 0.783206 0.867916 -5.22287 8.22644 2.7834 -4.07367 9.09541 5.36806 -8.06306 -0.145125 6.78793 -68.6588 -0.700423 -7.92254 -3.2751 -2.7025 -140.661 17.8467 7.41919 -7.49069 -3.32552 2.06055 15.3338 66.831 -4.80788 16.2018 -0.53251 0.362898 145.906 -14.6709 3.61614 7.72302 27.7271 -36.4546 22.8392 8.61425 51.1032 -15.8521 -16.5393 9.85002 -8.28654 4.11955e-006 -1.89772 -8.69289e-005 -21.3662 0.82573 -17.4095 -2.40405 31.877 6.40913 22.166 -15.2724 5.10807 -1.45068 -10.0963 -0.181801 
-4.2174 95.1493 -8.11426 0.221359 0.00273954 -36.4131 -1.38709 11.6343 6.80704 0.24205 0.813432 0.857408 0.233898 0.809483 0.863913 -5.53453 8.35084 3.01826 -4.27423 8.58335 6.19324 -7.77444 0.0422791 6.18129 -67.9003 -3.21783 -9.73077 -3.3544 -2.6034 -142.374 20.9814 6.61319 -7.37015 -3.20094 2.34694 16.1111 67.0453 -6.17747 19.3255 -0.540435 0.350949 147.181 -15.933 2.94553 6.88735 26.1382 -35.2495 21.5828 9.07449 47.4669 -15.9824 -15.6951 8.29876 -7.93359 3.64425e-006 -2.02069 -0.000795931 -22.0056 -0.84658 -17.0181 -3.3752 31.9858 6.95084 20.7893 -12.1831 3.3443 1.51048 -9.2636 0.15013 
-3.22253 95.1755 -6.47172 0.44975 0.423012 -37.9908 -1.4759 10.8988 6.71936 0.324918 0.838745 0.845739 0.318465 0.833821 0.854442 -5.74811 8.23122 3.24601 -4.4104 8.03905 7.12466 -7.455 0.256841 5.54117 -67.1781 -5.31034 -11.6696 -3.40345 -2.53892 -143.467 23.4961 5.9805 -7.45773 -3.0581 2.71939 17.0226 67.2087 -7.21976 22.2741 -0.546716 0.345002 147.809 -16.7444 2.53634 6.12281 25.0112 -33.5602 20.6802 9.50603 43.9673 -16.039 -15.383 6.87708 -7.69524 -7.45188e-006 -3.17877 -2.66375e-005 -22.5747 -2.74891 -16.7528 -4.33774 33.6722 7.36248 18.2531 -11.8488 1.58524 4.60511 -6.52001 0.341751 
